<svg width="492" height="424" viewBox="0 0 492 424" fill="none" xmlns="http://www.w3.org/2000/svg">
<g clip-path="url(#clip0)">
<path d="M370.527 64.5178C477.288 159.42 493.769 240.018 488.704 268.464C465.873 395.589 365.865 418.813 335.878 420.5C296.325 422.67 232.816 419.777 191.012 420.902C76.6137 427.411 30.2275 363.205 21.3843 330.339C-33.2823 195.821 43.3314 92.2411 88.5118 57.2857C204.598 -43.4018 324.945 20.1607 370.527 64.5178Z" fill="#F7BC28"/>
<path d="M189.645 158.777C185.786 174.366 179.194 190.277 165.929 199.357C153.629 207.795 136.908 208.759 123.161 202.893C109.414 197.027 98.802 184.973 93.4157 171.071C89.3961 160.625 88.5922 147.607 96.2294 139.33C100.249 134.991 105.876 132.661 111.424 130.491L147.439 116.107C148.24 115.615 149.196 115.441 150.119 115.62C151.042 115.798 151.864 116.316 152.424 117.071L189.967 152.589" fill="#32142A"/>
<path d="M150.655 123.339C146.625 127.34 141.768 130.412 136.425 132.339C131.071 134.191 125.509 135.379 119.865 135.875C117.614 136.116 115.363 136.357 113.433 137.402C111.794 138.411 110.438 139.822 109.494 141.5C107.657 144.763 106.689 148.443 106.68 152.187C106.283 160.939 109.083 169.535 114.559 176.375C121.553 185.134 132.084 191.402 143.339 192.366C154.835 193.33 167.055 187.625 172.361 177.179C173.406 175.089 174.049 168.098 170.753 175.812C167.055 184.411 155.8 188.67 146.555 188.83C136.024 188.991 125.894 183.527 118.98 175.893C115.524 172.116 110.78 167.616 109.494 162.714C108.931 160.233 108.608 157.704 108.529 155.161C108.313 152.853 108.422 150.527 108.851 148.25C109.655 144.875 113.916 141.018 117.051 139.973C119.061 139.33 121.231 139.411 123.322 139.33C130.557 139.009 137.471 135.955 143.339 131.777C144.786 130.732 146.233 129.607 147.68 128.482C148.321 128.003 148.889 127.435 149.369 126.795C149.591 126.452 149.722 126.058 149.75 125.65C149.778 125.243 149.702 124.834 149.529 124.464C149.333 124.15 149.022 123.923 148.662 123.833C148.302 123.743 147.921 123.797 147.6 123.982C147.52 123.982 147.52 124.062 147.439 124.062L150.655 123.339Z" fill="#7F4341"/>
<path d="M122.598 158.455C122.196 155.241 121.553 151.143 123.884 148.491C126.216 145.839 130.316 145.679 133.612 145.759C137.712 145.92 144.625 144.152 148.565 142.143C151.941 140.455 152.584 142.304 155.398 139.973C157.167 138.446 154.594 135.955 152.825 137.402C149.851 139.973 146.314 142.384 142.375 142.946C138.114 143.589 133.612 141.741 129.351 142.223C125.814 142.625 122.276 144.071 120.267 147.205C118.096 150.5 121.231 155.964 121.714 159.661C121.718 160.128 121.906 160.575 122.236 160.906C122.567 161.237 123.015 161.424 123.482 161.429C124.447 161.509 122.759 159.42 122.598 158.455Z" fill="#7F4341"/>
<path d="M166.331 167.455C170.11 163.839 170.833 163.196 173.245 158.536C173.467 158.115 173.524 157.627 173.405 157.166C173.286 156.705 173 156.306 172.602 156.045C171.798 155.563 171.878 155.161 171.396 156.045C169.175 160.53 166.243 164.628 162.714 168.179C161.99 168.821 157.729 170.911 158.453 171.554C159.176 172.196 163.357 170.027 164.08 169.384L166.331 167.455Z" fill="#7F4341"/>
<path d="M169.306 314.268C176.461 317.804 184.661 319.009 192.539 318.446C198.649 318.045 208.296 317.321 211.029 310.732C216.818 296.67 222.606 281.241 228.475 266.857C230.324 262.357 225.42 259.545 221.963 258.098C215.823 255.735 209.219 254.827 202.669 255.446C197.524 255.848 188.278 257.536 185.304 262.437L183.776 265.491L169.306 314.268Z" fill="#E48929"/>
<path d="M174.773 316.518L175.657 316.598C180.32 316.92 203.151 318.125 211.431 309.768L212.476 307.116L174.773 316.518Z" fill="#C05929"/>
<path d="M223.731 276.5C225.098 276.902 226.384 277.304 227.671 277.786L228.153 277.946C228.41 278.049 228.653 278.184 228.876 278.348C229.118 278.509 229.359 278.589 229.6 278.75L229.922 278.991C230.324 279.232 229.68 278.83 230.002 279.071C230.832 279.72 231.482 280.57 231.89 281.54C232.298 282.511 232.451 283.57 232.333 284.616C231.931 289.437 227.51 292.491 223.008 293.214C222.525 293.295 223.329 293.214 222.847 293.214L222.284 293.295H220.194C220.033 293.295 219.31 293.214 219.551 293.214C218.2 293.059 216.891 292.65 215.692 292.009C215.1 291.682 214.406 291.592 213.75 291.756C213.094 291.92 212.524 292.326 212.155 292.893C211.981 293.187 211.868 293.513 211.823 293.852C211.777 294.19 211.8 294.535 211.89 294.864C211.98 295.194 212.135 295.502 212.346 295.771C212.557 296.04 212.82 296.263 213.12 296.429C216.047 297.924 219.332 298.58 222.609 298.325C225.887 298.069 229.03 296.912 231.69 294.982C234.584 292.812 236.835 289.759 237.318 286.143C237.638 284.414 237.566 282.636 237.107 280.939C236.647 279.243 235.813 277.671 234.665 276.339C232.253 273.527 228.475 272.402 225.018 271.357C221.882 270.554 220.516 275.536 223.731 276.5Z" fill="#E48929"/>
<path d="M179.676 283.009C179.991 285.187 180.745 287.279 181.892 289.157C183.039 291.036 184.555 292.662 186.349 293.937C189.886 296.589 195.996 298.196 200.337 298.598C198.89 300.687 194.71 301.571 192.218 302.214C189.716 302.911 187.067 302.883 184.58 302.134C180.882 300.929 178.149 297.714 176.782 294.098C175.553 290.424 175.276 286.498 175.978 282.688" fill="#C05929"/>
<path d="M146.716 121.25C141.249 94.25 166.492 68.2143 191.253 61.9464C240.855 49.491 247.045 123.339 204.437 149.857C195.433 155.402 182.731 144.473 172.522 141.661C162.312 138.848 153.227 131.696 148.886 122.054" fill="#32142A"/>
<path d="M183.937 70.0625C168.1 72.3125 168.582 42.9018 183.696 39.9286C189.726 38.7232 196.8 40.8125 200.82 45.4732C203.312 48.3661 207.975 66.8482 201.463 67.6518C195.594 68.375 189.726 69.1786 183.937 70.0625Z" fill="#32142A"/>
<path d="M143.42 146.402C143.018 147.125 150.575 143.429 150.816 144.152C152.665 149.054 156.765 152.348 161.267 154.92C166.171 157.732 174.933 165.366 180.561 165.366C193.022 165.205 205.241 150.339 213.12 140.696C221.48 130.491 224.053 118.437 226.304 105.5C226.786 102.687 226.867 99.5536 225.178 97.3036C224.187 96.0851 222.92 95.1208 221.48 94.4911C207.975 87.6607 191.092 91.5982 178.712 100.277C167.618 108.152 159.498 119.241 151.861 130.491C149.61 133.866 148.082 138.366 143.42 146.402Z" fill="#FFC9A0"/>
<path d="M154.594 130.652C147.761 130.009 143.018 121.812 145.269 115.384C147.52 108.955 155.72 105.5 162.151 107.83C168.582 110.161 172.602 117.554 171.637 124.384" fill="#FFC9A0"/>
<path d="M132.888 160.625L149.931 137.482C150.261 136.894 150.81 136.461 151.459 136.277C151.786 136.298 152.106 136.388 152.397 136.54C152.688 136.692 152.943 136.904 153.147 137.161C157.167 140.857 161.508 145.277 161.106 150.741C160.945 153.393 159.578 155.804 158.292 158.134L148.404 175.812L132.888 160.625Z" fill="#FFC9A0"/>
<path d="M128.145 152.589C77.1765 175.33 49.6824 228.687 36.6588 280.357C31.6745 299.964 29.3432 319.491 27.7353 339.58C27.4941 342.554 25.7255 388.679 24.1981 388.679C66.8863 388.759 90.2804 382.812 132.888 382.893C123.724 304.384 137.069 240.5 153.629 175.893L128.145 152.589Z" fill="#FAC7B7"/>
<path d="M228.716 96.0982C228.423 95.2329 228.046 94.3985 227.59 93.6071C222.767 84.6071 211.19 82.0357 201.784 83.8035C190.127 86.0535 179.918 93.6071 170.914 101.964C167.376 105.259 161.026 110.482 160.222 113.054C159.418 115.625 176.863 122.375 180.561 122.857C190.288 124.223 200.418 122.937 209.824 120.125C214.647 118.679 221.882 117.393 225.982 114.339C226.947 113.536 231.047 102.607 228.716 96.0982Z" fill="#32142A"/>
<path d="M152.343 332.67C155.88 324.152 164.884 319.009 173.888 316.759C182.892 314.509 192.298 314.348 201.302 312.098C210.306 309.848 219.39 304.866 223.008 296.429C224.455 293.054 223.892 287.67 220.194 287.429C218.798 287.478 217.451 287.955 216.335 288.795C211.753 291.607 207.573 295.063 202.829 297.554C198.086 300.045 192.539 301.652 187.314 300.366C182.088 299.08 177.506 294.42 177.667 289.036C177.92 286.723 178.378 284.438 179.033 282.205C179.435 280.759 174.049 283.732 172.602 285.339C171.155 286.946 169.627 288.554 168.984 290.643C165.045 303.339 152.504 310.973 140.927 317.482" fill="#FFC9A0"/>
<path d="M153.227 125.187C150.816 123.018 148.243 119.08 150.092 115.786C150.98 114.345 152.289 113.211 153.841 112.536C155.393 111.861 157.115 111.677 158.775 112.009C159.9 112.25 160.382 110.482 159.257 110.241C155.237 109.518 150.575 111.125 148.565 114.902C146.314 118.92 148.886 123.741 152.022 126.473C152.826 127.277 154.112 125.991 153.227 125.187Z" fill="#32142A"/>
<path d="M156.041 121.571C155.8 121.25 155.559 120.848 155.318 120.527C155.194 120.321 155.087 120.106 154.996 119.884C154.916 119.723 154.835 119.643 154.835 119.482C154.744 119.279 154.69 119.061 154.675 118.839C154.755 119 154.675 118.759 154.675 118.759V118.116C154.669 118.072 154.674 118.028 154.688 117.987C154.702 117.945 154.725 117.907 154.755 117.875C154.755 117.795 154.755 117.795 154.835 117.714C154.916 117.634 154.916 117.554 154.996 117.473C155.076 117.393 155.157 117.232 155.076 117.393L155.237 117.232L155.318 117.152C155.398 117.071 155.478 117.071 155.559 116.991C155.398 117.071 155.559 116.991 155.639 116.991C155.72 116.991 155.8 116.911 155.88 116.911H157.327L157.569 116.991L158.131 117.152C158.366 117.237 158.625 117.226 158.851 117.12C159.077 117.015 159.252 116.824 159.337 116.589C159.423 116.355 159.411 116.096 159.306 115.87C159.2 115.644 159.009 115.469 158.775 115.384C158.694 115.384 158.694 115.384 158.614 115.304C157.656 114.985 156.636 114.902 155.639 115.062C155.154 115.135 154.691 115.317 154.287 115.596C153.883 115.874 153.548 116.242 153.308 116.67C153.069 117.123 152.924 117.621 152.883 118.132C152.841 118.643 152.904 119.157 153.067 119.643C153.364 120.681 153.885 121.641 154.594 122.455C154.744 122.642 154.957 122.77 155.193 122.814C155.429 122.858 155.673 122.816 155.88 122.696C156.002 122.539 156.08 122.352 156.108 122.155C156.137 121.958 156.113 121.757 156.041 121.571Z" fill="#32142A"/>
<path d="M206.286 302.375C208.778 300.848 211.11 299.241 213.522 297.554C217.059 295.062 220.837 292.732 223.169 288.955C224.053 287.509 221.802 286.223 220.918 287.67C218.747 291.125 215.049 293.295 211.833 295.545C209.582 297.152 207.251 298.679 204.92 300.125C203.553 301.009 204.839 303.259 206.286 302.375Z" fill="#EFB086"/>
<path d="M211.833 305.027C214.447 303.415 216.921 301.587 219.229 299.562C221.4 297.554 223.41 295.223 225.42 292.973C226.545 291.768 224.696 289.92 223.571 291.125C221.561 293.295 219.631 295.545 217.461 297.554C215.32 299.477 213.005 301.199 210.547 302.696C209.18 303.661 210.467 305.911 211.833 305.027Z" fill="#EFB086"/>
<path d="M219.792 267.42C218.586 267.5 217.461 267.42 216.255 267.42C213.682 267.42 211.11 267.339 208.537 267.098C203.241 266.714 198.007 265.716 192.941 264.125C191.494 263.643 189.725 262.598 190.208 261.232C190.529 260.429 191.494 260.027 192.378 259.705C201.865 256.652 207.251 256.571 220.757 260.67C222.767 261.312 227.59 263.643 225.5 265.652C225.016 266.095 224.439 266.424 223.812 266.616C222.518 267.076 221.164 267.346 219.792 267.42Z" fill="#32142A"/>
<path d="M196.237 126.875C200.659 125.107 206.045 125.268 210.708 126.071C210.987 126.167 211.283 126.205 211.578 126.184C211.873 126.163 212.16 126.082 212.423 125.947C212.685 125.812 212.918 125.625 213.107 125.398C213.296 125.171 213.437 124.908 213.522 124.625C214.084 123.018 212.396 121.973 211.029 121.491C207.01 120.125 202.588 120.527 198.569 121.732C196.531 122.389 194.564 123.251 192.7 124.304C191.494 125.027 188.359 126.473 188.6 128.241C188.922 130.652 194.629 127.518 195.675 127.036L196.237 126.875Z" fill="#32142A"/>
<path d="M179.516 114.179C188.359 114.661 193.424 114.902 201.945 112.17C208.354 110.205 214.199 106.733 218.988 102.045C221.561 99.3928 222.365 93.2857 223.169 89.5893C223.651 87.3393 221.4 91.1964 220.274 93.8482C217.943 99.4732 214.647 101.723 209.663 104.696C203.887 108.242 197.363 110.388 190.61 110.964C185.465 111.286 181.043 111.848 171.637 111.768C169.306 111.768 173.004 113.777 175.335 113.937L179.516 114.179Z" fill="#7F4341"/>
<path d="M164 94.4911C165.769 90.5536 168.743 87.5 172.12 84.8482C177.425 80.5788 183.296 77.0634 189.565 74.4018C192.62 73.1161 195.996 71.5893 199.292 71.0268C202.427 70.4643 205.884 72.3929 208.618 73.6786C210.036 74.2131 211.385 74.9145 212.637 75.7679C213.29 76.263 213.792 76.9311 214.084 77.6964C214.406 79.2232 212.959 79.3036 211.753 79.3839C205.804 79.625 199.533 79.7857 193.665 81.2321C187.796 82.6786 182.973 86.0536 178.229 89.8304C177.426 90.4732 175.094 93.2857 175.737 93.9286C176.38 94.5714 181.284 89.6696 182.088 89.0268C185.187 86.4031 188.802 84.4593 192.7 83.3214C198.006 81.5536 204.598 83.3214 210.145 83.0804C213.039 82.9196 220.435 83.7232 219.631 82.1161C218.827 80.5089 215.773 73.2768 212.798 71.75C209.78 70.136 206.6 68.8432 203.312 67.8929C201.932 67.4778 200.484 67.3412 199.051 67.4911C197.798 67.7271 196.562 68.0492 195.353 68.4554C188.466 70.5542 182.088 74.0563 176.622 78.7411C170.351 84.2054 164.161 89.75 160.784 97.4643C159.739 99.5536 163.035 96.6607 164 94.4911Z" fill="#7F4341"/>
<path d="M186.349 102.205C195.112 104.616 203.794 102.125 209.341 94.7322C209.904 93.9286 212.074 89.6696 211.673 89.6696C211.271 89.6696 210.065 91.8393 209.502 92.6429C204.92 98.75 193.745 101.804 186.51 101C180.078 100.357 184.018 101.643 186.349 102.205Z" fill="#7F4341"/>
<path d="M161.427 302.696L163.437 300.446L171.637 317.402L168.02 318.688L161.427 302.696Z" fill="#EFB086"/>
<path d="M160.222 154.437L150.816 144.232L156.202 161.991L160.222 154.437Z" fill="#EFB086"/>
<path d="M202.267 131.054C200.096 131.214 197.363 132.902 197.363 134.911C197.363 137.562 200.9 136.437 202.106 135.554C202.99 134.911 204.598 133.946 204.678 132.741C204.759 131.536 203.633 130.973 202.267 131.054Z" fill="#32142A"/>
<path d="M212.718 137.804C210.788 138.768 208.859 141.339 209.663 143.268C210.708 145.759 213.522 143.348 214.326 141.982C214.888 141.098 216.014 139.571 215.612 138.366C215.21 137.161 213.924 137.161 212.718 137.804Z" fill="#32142A"/>
<path d="M24.198 361.839C25.0824 352.116 23.0726 340.223 22.9922 330.5C22.9118 322.625 22.4294 316.679 24.9216 309.286C25.1169 308.752 25.5087 308.314 26.0168 308.06C26.5249 307.806 27.1109 307.756 27.6549 307.92C27.9683 308.035 28.2528 308.216 28.4888 308.452C28.7248 308.688 28.9066 308.972 29.0216 309.286C31.3529 316.116 35.2922 323.107 36.8196 330.259C36.8358 330.388 36.8784 330.512 36.945 330.624C37.0115 330.735 37.1005 330.832 37.2062 330.907C37.312 330.983 37.4322 331.035 37.5594 331.062C37.6866 331.089 37.8179 331.089 37.9451 331.062C38.111 331.027 38.2649 330.949 38.3917 330.836C38.5186 330.724 38.614 330.58 38.6686 330.42C39.9549 326 40.1157 321.259 40.6784 316.679C41.0024 313.371 41.8717 310.14 43.251 307.116C43.7119 306.234 44.4975 305.564 45.4423 305.25C46.3871 304.935 47.4173 304.999 48.3157 305.429C48.7536 305.627 49.1447 305.916 49.4633 306.276C49.782 306.636 50.021 307.059 50.1647 307.518L53.7824 317.321C54.4424 319.164 55.2212 320.963 56.1137 322.705C57.7079 325.248 59.7509 327.481 62.1431 329.295C73.3176 338.536 88.0294 342.714 102.5 343.357C116.971 344 131.441 341.187 145.429 337.571L132.808 362.321L133.853 425.241H24.0373L24.198 361.839Z" fill="#E48929"/>
<path d="M60.8569 361.679C56.6765 352.357 51.2902 335.964 48.9588 327.286C43.8941 308.562 39.8745 289.357 41.3216 269.991L45.1 263C59.0883 293.937 74.6039 326.643 103.304 344.804C104.671 345.687 106.118 346.571 106.922 347.937C107.645 349.143 130.476 347.134 130.557 348.58C130.959 353.08 132.004 357.179 132.969 362.241L60.8569 361.679Z" fill="#E48929"/>
<path d="M91.1647 241.866C93.898 220.411 105.555 199.679 106.359 178.062C106.439 175.491 106.359 172.839 104.831 170.75C100.892 165.205 92.1294 168.821 86.9843 173.161C58.7667 196.705 40.598 232.705 41.1608 269.429C41.3216 279.634 42.849 289.759 44.8588 299.804C48.1549 316.437 53.0588 333.634 65.1176 345.607C80.2314 360.554 103.867 363.929 124.608 359.589C145.349 355.25 164.08 344.161 182.329 333.312C173.647 311.857 164.965 290.455 156.282 269.107C145.671 275.616 134.576 282.366 122.196 283.571C107.002 285.018 94.3 275.857 91.4863 260.75C90.3751 254.512 90.2665 248.138 91.1647 241.866Z" fill="#FAC7B7"/>
<path d="M94.3 171.393C97.4353 170.268 100.892 170.027 103.706 172.036C106.198 173.723 107.404 176.857 107.645 179.75C107.794 181.808 107.577 183.876 107.002 185.857C106.906 186.187 106.945 186.542 107.111 186.844C107.277 187.145 107.556 187.368 107.886 187.464C108.217 187.56 108.572 187.521 108.873 187.355C109.175 187.189 109.398 186.911 109.494 186.58C110.692 182.61 110.464 178.347 108.851 174.527C108.147 172.867 107.032 171.414 105.612 170.304C104.192 169.193 102.512 168.462 100.731 168.179C98.2903 167.842 95.8039 168.119 93.4961 168.982C92.049 169.464 92.6922 171.955 94.3 171.393Z" fill="#F9A793"/>
<path d="M47.6726 312.42C46.7883 308.884 78.9451 314.991 81.5981 315.634C87.2255 316.92 88.753 320.777 90.3608 325.92C93.8981 337.571 97.5961 349.223 100.571 361.036C100.651 360.955 60.2137 362.402 47.6726 312.42Z" fill="#F9B7A5"/>
<path d="M155.8 267.902C150.916 270.818 145.808 273.344 140.526 275.455C135.672 277.528 130.674 279.247 125.573 280.598C120.735 281.978 115.603 281.95 110.78 280.518C105.314 278.911 100.088 275.696 97.1137 270.795C93.9589 265.352 92.321 259.165 92.3706 252.875C92.3706 252.534 92.2351 252.207 91.9939 251.966C91.7526 251.725 91.4255 251.589 91.0843 251.589C90.7432 251.589 90.416 251.725 90.1748 251.966C89.9336 252.207 89.7981 252.534 89.7981 252.875C89.784 258.746 91.1035 264.543 93.6569 269.83C96.3902 275.455 100.973 279.312 106.68 281.804C112.025 284.189 117.97 284.89 123.724 283.812C128.832 282.619 133.833 281.006 138.676 278.991C144.958 276.655 151.013 273.75 156.765 270.312L155.8 267.902Z" fill="#F9A793"/>
<path d="M207.09 136.196C206.769 136.437 206.447 136.679 206.206 136.839C202.91 139.652 200.096 143.268 197.122 146.482C196.607 146.91 196.264 147.509 196.157 148.17C196.157 148.973 196.88 149.616 197.604 150.098C200.176 151.946 203.151 153.875 206.608 151.384C207.955 150.349 208.941 148.915 209.422 147.286C210.529 143.828 211.125 140.228 211.19 136.598C211.271 133.786 208.778 135.071 207.09 136.196Z" fill="#E48929"/>
<path d="M202.347 396.714C202.347 396.714 221.561 245.161 362.89 233.509L370.929 220.893L418.361 216.875L424.471 233.509C424.471 233.509 486.051 269.348 478.012 340.946L410.322 368.911V399.527L202.347 396.714Z" fill="#39B55D"/>
<path d="M418.441 216.875C418.441 216.875 413.859 176.214 413.216 172.437C411.849 165.125 410.643 152.187 407.588 145.437C402.926 135.152 390.224 129.929 379.29 132.741C366.829 135.875 358.147 148.571 353.324 159.741C348.822 170.107 338.773 201.446 348.822 211.009C356.298 218.161 371.492 213.741 379.29 209.321L377.441 220.491L418.441 216.875Z" fill="#B26D55"/>
<path d="M408.875 173.402C409.116 170.268 412.09 168.179 414.984 166.973C417.044 166.019 419.312 165.605 421.576 165.768C422.7 165.859 423.787 166.212 424.75 166.798C425.713 167.384 426.526 168.187 427.124 169.143C427.749 170.327 428.027 171.664 427.927 173C427.767 177.018 425.275 180.554 422.782 183.768C419.245 188.509 415.386 193.491 409.839 195.58" fill="#B26D55"/>
<path d="M410.322 368.911C409.116 348.098 407.91 327.205 410.08 306.393C412.251 285.58 413.135 250.946 424.471 233.509C439.826 242.83 461.773 266.536 468.606 283.17C475.278 299.321 480.665 310.732 478.012 340.946L410.322 368.911Z" fill="#39B55D"/>
<path d="M362.89 233.509L355.253 245.321L351.073 234.795C350.992 234.875 359.273 233.509 362.89 233.509Z" fill="#194429"/>
<path d="M349.867 181.679C348.586 185.669 347.776 189.795 347.455 193.973C347.36 195.023 347.554 196.079 348.018 197.027C348.106 197.221 348.245 197.387 348.42 197.509C348.627 197.575 348.845 197.602 349.063 197.589C352.037 197.429 355.092 197.268 357.826 196.062C358.305 195.891 358.724 195.584 359.031 195.179C359.187 194.915 359.289 194.622 359.33 194.319C359.371 194.015 359.352 193.707 359.273 193.411C358.469 188.348 354.851 184.893 352.359 179.991C352.208 179.759 351.978 179.59 351.711 179.516C351.445 179.442 351.16 179.468 350.912 179.589C350.816 179.639 350.731 179.707 350.662 179.79C350.593 179.872 350.541 179.968 350.51 180.071C350.269 180.554 350.108 181.116 349.867 181.679Z" fill="#C05929"/>
<path d="M478.012 340.946C477.5 361.745 474.256 382.386 468.365 402.339C464.747 414.875 461.129 438.179 450.437 446.857C440.388 454.893 424.551 448.545 414.18 444.446C400.514 439.062 386.686 435.045 373.02 429.982C355.253 423.393 328.482 419.536 308.867 421.223C299.3 422.107 295.361 415.116 285.875 416.08C284.186 416.241 282.257 416.402 280.89 415.438C279.849 414.617 279.045 413.536 278.559 412.304L273.896 403.062C273.098 401.786 272.68 400.309 272.69 398.804C272.851 396.473 274.861 394.705 276.871 393.42C287.161 386.509 299.461 383.295 311.761 381.607C346.329 376.866 380.737 384.661 411.126 401.777C411.447 390.687 411.769 383.857 412.412 368.027L478.012 340.946Z" fill="#B26D55"/>
<path d="M336.843 412.625C341.667 414.312 354.369 413.991 357.665 417.125C361.122 420.339 331.618 421.545 328 421.946C299.541 424.598 271.082 426.286 242.543 427.411C215.371 428.455 186.188 431.83 159.257 427.732C148.243 426.045 144.465 421.304 143.902 410.295C142.616 383.375 141.41 356.375 140.124 329.455C140.012 326.839 140.856 324.272 142.498 322.232C144.139 320.192 146.467 318.818 149.047 318.366C196.162 310.578 243.938 307.509 291.663 309.205C293.398 309.26 295.055 309.942 296.326 311.124C297.597 312.306 298.397 313.908 298.576 315.634C299.863 329.134 304.686 360.473 305.651 364.089C308.384 374.295 311.278 384.821 316.745 393.902C321.569 402.098 324.865 408.527 336.843 412.625Z" fill="#194429"/>
<path d="M411.608 173.723C413.221 173.233 414.783 172.587 416.271 171.795C417.637 171.232 419.647 170.348 421.094 171.232C421.978 171.714 421.898 172.759 421.818 173.643C421.689 174.65 421.474 175.645 421.175 176.616C420.599 178.557 419.731 180.4 418.602 182.08C417.238 184.012 415.377 185.539 413.216 186.5C412.171 186.982 413.055 188.509 414.1 188.027C418.522 186.018 421.416 181.839 422.782 177.259C423.1 176.125 423.342 174.97 423.506 173.804C423.728 172.674 423.528 171.501 422.943 170.509C421.657 168.741 419.245 168.821 417.396 169.384C415.226 170.027 413.216 171.312 411.045 171.875C410.933 171.909 410.828 171.966 410.738 172.042C410.648 172.118 410.575 172.212 410.522 172.317C410.47 172.422 410.439 172.537 410.432 172.654C410.425 172.772 410.442 172.889 410.482 173C410.556 173.233 410.709 173.433 410.914 173.565C411.12 173.697 411.365 173.753 411.608 173.723Z" fill="#32142A"/>
<path d="M410.643 178.223C411.219 178.044 411.783 177.83 412.331 177.58C412.634 177.496 412.93 177.389 413.216 177.259C413.376 177.179 413.537 177.179 413.698 177.098L413.859 177.018C413.859 177.018 414.1 176.937 413.939 177.018H414.502C414.582 177.018 414.743 177.098 414.582 177.018C414.422 176.937 414.663 177.098 414.663 177.098L414.824 177.259L414.904 177.42C414.904 177.5 414.984 177.58 414.984 177.661C414.824 177.42 414.984 177.741 414.984 177.741V177.821C414.904 177.661 414.984 177.661 414.984 177.821V178.143C414.984 178.223 414.904 178.304 414.984 178.062V178.143C414.988 178.255 414.96 178.367 414.904 178.464L414.824 178.625C414.73 178.82 414.622 179.008 414.502 179.187L414.341 179.509L414.261 179.589C414.1 179.75 414.422 179.429 414.261 179.67C413.96 180.036 413.637 180.385 413.296 180.714C413.126 180.894 412.938 181.056 412.733 181.196L412.653 181.277L412.573 181.357L412.251 181.598C411.867 181.868 411.464 182.11 411.045 182.321L410.724 182.482C410.643 182.482 410.563 182.562 410.724 182.482L410.563 182.562C410.402 182.643 410.241 182.643 410.08 182.723C409.964 182.755 409.856 182.809 409.76 182.883C409.665 182.956 409.585 183.048 409.526 183.153C409.466 183.257 409.427 183.372 409.412 183.492C409.397 183.611 409.406 183.732 409.437 183.848C409.469 183.964 409.523 184.073 409.597 184.168C409.671 184.263 409.762 184.343 409.867 184.403C409.971 184.462 410.087 184.501 410.206 184.516C410.325 184.531 410.447 184.523 410.563 184.491C411.464 184.255 412.31 183.845 413.055 183.286C414.004 182.647 414.868 181.891 415.627 181.036C416.374 180.214 416.826 179.169 416.914 178.062C416.902 177.429 416.671 176.819 416.261 176.335C415.851 175.852 415.286 175.525 414.663 175.411C413.135 175.25 411.688 176.214 410.241 176.536C410.125 176.567 410.016 176.622 409.921 176.695C409.826 176.769 409.746 176.861 409.686 176.965C409.627 177.069 409.588 177.185 409.573 177.304C409.558 177.423 409.566 177.545 409.598 177.661C409.598 178.143 410.08 178.384 410.643 178.223Z" fill="#32142A"/>
<path d="M361.282 255.286C365.865 246.286 370.608 237.446 375.592 228.607C376.396 227.161 374.145 225.875 373.341 227.321C368.437 236.08 363.694 245 359.031 254C358.308 255.527 360.559 256.813 361.282 255.286Z" fill="#194429"/>
<path d="M396.173 257.054L399.308 224.268C399.469 222.58 396.896 222.661 396.735 224.268L393.6 257.134C393.439 258.741 396.012 258.741 396.173 257.054Z" fill="#194429"/>
<path d="M408.071 247.491V226.277C408.071 225.936 407.935 225.609 407.694 225.368C407.453 225.126 407.125 224.991 406.784 224.991C406.443 224.991 406.116 225.126 405.875 225.368C405.634 225.609 405.498 225.936 405.498 226.277V247.491C405.496 247.66 405.528 247.829 405.592 247.986C405.655 248.143 405.75 248.285 405.87 248.405C405.99 248.525 406.133 248.619 406.29 248.683C406.447 248.747 406.615 248.779 406.784 248.777C407.123 248.769 407.445 248.631 407.685 248.391C407.924 248.152 408.062 247.829 408.071 247.491Z" fill="#194429"/>
<path d="M385.882 251.348C386.542 245.293 387.562 239.282 388.937 233.348C389.339 231.741 386.847 231.018 386.445 232.625C385.004 238.766 383.956 244.993 383.31 251.268C383.308 251.437 383.339 251.605 383.403 251.762C383.467 251.919 383.562 252.062 383.682 252.182C383.802 252.302 383.944 252.396 384.101 252.46C384.258 252.524 384.427 252.556 384.596 252.554C384.926 252.562 385.246 252.441 385.487 252.215C385.728 251.989 385.87 251.678 385.882 251.348Z" fill="#194429"/>
<path d="M372.939 256.33L384.114 226.598C384.677 225.071 382.184 224.348 381.622 225.875L370.447 255.607C369.884 257.134 372.377 257.857 372.939 256.33Z" fill="#194429"/>
<path d="M412.09 222.741C414.261 229.17 416.753 235.518 418.763 242.027C418.859 242.357 419.082 242.636 419.384 242.802C419.685 242.967 420.04 243.007 420.371 242.911C420.701 242.815 420.98 242.592 421.146 242.29C421.312 241.989 421.351 241.634 421.255 241.304C419.326 234.795 416.833 228.446 414.582 222.018C414.02 220.491 411.527 221.214 412.09 222.741Z" fill="#194429"/>
<path d="M412.412 368.027C412.251 349.223 412.653 330.339 413.618 311.616C413.859 306.312 414.18 301.009 414.582 295.705C414.663 294.018 412.09 294.018 412.01 295.705C410.724 314.455 410 333.259 409.839 352.116C409.759 357.42 409.759 363.848 409.759 369.152L412.412 368.027Z" fill="#194429"/>
<path d="M397.057 394.625L412.573 331.625L412.653 402.58L397.057 394.625Z" fill="#194429"/>
<path d="M412.573 401.616C414.975 402.889 417.193 404.484 419.165 406.357L412.653 390.527L412.573 401.616Z" fill="#A05744"/>
<path d="M370.045 172.92C369.241 174.687 369.402 177.018 369.643 178.946C370.125 182.241 372.939 181.277 373.824 178.705C374.547 176.616 374.869 173.804 373.582 171.955C372.296 170.107 370.769 171.232 370.045 172.92Z" fill="#32142A"/>
<path d="M342.551 176.536C341.896 178.476 341.758 180.553 342.149 182.563C342.631 185.857 345.445 184.893 346.329 182.321C347.053 180.232 347.375 177.42 346.088 175.571C344.802 173.723 343.275 174.929 342.551 176.536Z" fill="#32142A"/>
<path d="M353.082 177.259C353.645 176.857 354.208 176.536 354.69 176.134C355.222 175.754 355.823 175.481 356.459 175.33C358.227 175.009 360.157 174.768 361.684 175.893C361.886 175.993 362.117 176.012 362.333 175.947C362.548 175.882 362.73 175.738 362.843 175.544C362.955 175.349 362.99 175.12 362.939 174.901C362.888 174.682 362.755 174.491 362.569 174.366C360.72 173 358.388 173.241 356.298 173.562C354.758 173.958 353.328 174.7 352.118 175.732C351.92 175.854 351.777 176.047 351.717 176.271C351.657 176.495 351.686 176.734 351.796 176.937C351.938 177.134 352.145 177.274 352.381 177.333C352.616 177.392 352.864 177.365 353.082 177.259Z" fill="#32142A"/>
<path d="M353.243 159.58C352.841 160.786 381.863 149.054 395.047 146.482L400.112 182.562C403.241 177.388 407.302 172.838 412.09 169.143C412.09 169.143 414.984 130.893 388.535 131.134C388.535 131.134 363.373 130.17 353.243 159.58Z" fill="#FAC7B7"/>
<path d="M368.92 165.286C369.482 165.286 370.126 165.205 370.688 165.205C373.796 164.933 376.918 165.545 379.692 166.973C382.024 168.098 384.194 169.545 386.525 170.67C387.329 171.071 388.294 171.393 388.857 170.509C389.024 170.126 389.103 169.712 389.089 169.294C389.075 168.877 388.968 168.469 388.776 168.098C387.098 164.502 384.454 161.442 381.139 159.259C378.796 157.984 376.17 157.32 373.502 157.33C371.251 157.33 366.186 157.812 364.257 159.179C361.845 160.866 365.061 164.321 367.714 165.125C368.108 165.223 368.513 165.277 368.92 165.286Z" fill="#FAC7B7"/>
<path d="M350.992 163.196C348.58 162.393 340.702 162.955 338.531 164.643C336.522 166.089 337.888 166.491 339.898 167.937C340.702 168.5 344.159 168.902 345.124 168.982C353.726 170.107 354.851 169.786 355.575 167.937C355.621 167.806 355.638 167.666 355.624 167.527C355.61 167.388 355.566 167.254 355.494 167.134C354.931 165.446 353.404 164.321 351.877 163.518C351.475 163.357 351.233 163.277 350.992 163.196Z" fill="#FAC7B7"/>
<path d="M340.863 165.929C334.753 166.17 330.09 171.554 329.286 177.42C328.884 180.634 329.206 184.089 331.135 186.821C332.768 189.224 335.23 190.941 338.049 191.643C344.078 193.17 350.349 189.554 352.6 183.848C353.279 182.078 353.587 180.187 353.504 178.294C353.421 176.4 352.949 174.543 352.118 172.839C351.118 170.718 349.52 168.934 347.521 167.707C345.522 166.479 343.208 165.861 340.863 165.929C340.745 165.934 340.629 165.964 340.524 166.017C340.418 166.069 340.324 166.143 340.249 166.234C340.173 166.325 340.117 166.43 340.085 166.543C340.052 166.657 340.043 166.776 340.059 166.893C340.087 167.096 340.18 167.285 340.326 167.43C340.471 167.575 340.659 167.668 340.863 167.696C342.642 167.652 344.401 168.074 345.967 168.92C347.532 169.766 348.849 171.006 349.786 172.518C351.05 174.424 351.721 176.66 351.716 178.946C351.721 181.687 350.716 184.334 348.891 186.38C347.067 188.425 344.552 189.727 341.827 190.036C340.518 190.153 339.199 190.011 337.944 189.617C336.69 189.224 335.526 188.588 334.518 187.744C333.51 186.901 332.678 185.867 332.07 184.702C331.462 183.538 331.09 182.264 330.975 180.955V180.714C330.687 177.474 331.603 174.242 333.547 171.634C334.415 170.488 335.516 169.537 336.776 168.845C338.037 168.153 339.429 167.734 340.863 167.616C340.974 167.616 341.083 167.594 341.186 167.552C341.288 167.509 341.381 167.447 341.46 167.369C341.538 167.291 341.6 167.198 341.643 167.095C341.685 166.993 341.707 166.883 341.707 166.772C341.707 166.661 341.685 166.552 341.643 166.449C341.6 166.347 341.538 166.254 341.46 166.176C341.381 166.097 341.288 166.035 341.186 165.993C341.083 165.95 340.974 165.929 340.863 165.929Z" fill="#32142A"/>
<path d="M373.1 160.464C366.99 160.705 362.327 166.089 361.524 171.955C361.122 175.17 361.443 178.625 363.373 181.357C365.005 183.76 367.467 185.476 370.286 186.179C376.316 187.705 382.586 184.089 384.837 178.384C385.515 176.627 385.821 174.75 385.738 172.869C385.655 170.989 385.184 169.145 384.355 167.455C383.349 165.333 381.752 163.545 379.756 162.305C377.76 161.065 375.45 160.426 373.1 160.464C372.845 160.489 372.611 160.612 372.445 160.807C372.28 161.002 372.198 161.254 372.216 161.509C372.244 161.712 372.337 161.901 372.482 162.046C372.628 162.191 372.816 162.285 373.02 162.312C374.799 162.268 376.558 162.69 378.123 163.536C379.689 164.382 381.006 165.622 381.943 167.134C383.171 169.056 383.839 171.282 383.873 173.562C383.878 176.303 382.872 178.95 381.048 180.996C379.224 183.042 376.709 184.343 373.984 184.652C372.675 184.769 371.356 184.627 370.101 184.234C368.847 183.84 367.683 183.204 366.675 182.361C365.667 181.517 364.835 180.483 364.227 179.319C363.619 178.154 363.247 176.88 363.131 175.571V175.33C362.844 172.09 363.76 168.858 365.704 166.25C366.572 165.104 367.672 164.153 368.933 163.461C370.194 162.769 371.586 162.35 373.02 162.232C373.136 162.237 373.252 162.22 373.361 162.18C373.47 162.141 373.571 162.08 373.657 162.002C373.743 161.923 373.812 161.829 373.861 161.724C373.911 161.618 373.939 161.504 373.944 161.388C373.949 161.272 373.932 161.156 373.892 161.047C373.853 160.938 373.792 160.837 373.714 160.752C373.635 160.666 373.541 160.596 373.435 160.547C373.33 160.498 373.216 160.47 373.1 160.464Z" fill="#32142A"/>
<path d="M386.204 175.973C395.69 173.482 405.016 170.75 414.341 167.696C414.576 167.632 414.775 167.478 414.896 167.267C415.016 167.056 415.048 166.806 414.984 166.571C414.92 166.337 414.766 166.138 414.555 166.017C414.344 165.896 414.093 165.865 413.859 165.929C404.614 168.982 395.208 171.714 385.722 174.205C385.49 174.294 385.301 174.469 385.196 174.694C385.091 174.919 385.078 175.176 385.159 175.411C385.247 175.607 385.397 175.768 385.586 175.87C385.775 175.971 385.992 176.008 386.204 175.973Z" fill="#32142A"/>
<path d="M356.057 156.446C354.931 151.866 365.141 149.536 365.463 153.473C365.543 154.679 364.418 155.241 363.533 154.277C362.569 153.152 363.292 151.384 363.855 150.259C364.851 148.511 366.33 147.088 368.116 146.161C369.939 145.194 372.039 144.882 374.065 145.277C374.646 145.391 375.177 145.685 375.581 146.118C375.985 146.551 376.242 147.1 376.316 147.687C376.476 148.17 377.039 150.982 375.914 149.857C375.271 149.214 375.592 147.768 375.833 147.045C376.343 145.671 377.33 144.526 378.614 143.818C379.897 143.11 381.393 142.886 382.827 143.187V141.5C381.692 141.699 380.525 141.627 379.422 141.292C378.319 140.957 377.31 140.368 376.476 139.571C374.708 137.643 375.592 135.473 377.682 134.429C378.587 133.973 379.586 133.738 380.599 133.742C381.612 133.746 382.609 133.989 383.51 134.451C384.411 134.913 385.19 135.581 385.784 136.401C386.378 137.221 386.77 138.17 386.927 139.17C387.169 140.295 388.937 139.812 388.696 138.687C387.571 132.821 380.335 129.768 375.512 133.705C375.019 134.068 374.603 134.525 374.288 135.049C373.972 135.573 373.764 136.154 373.674 136.759C373.584 137.364 373.615 137.981 373.765 138.574C373.915 139.167 374.181 139.724 374.547 140.214C374.627 140.375 374.788 140.455 374.869 140.616C376.878 143.027 380.175 143.75 383.229 143.348C384.114 143.187 384.033 141.821 383.229 141.58C378.567 140.375 372.537 144.714 373.824 149.857C373.937 150.377 374.193 150.854 374.562 151.237C374.931 151.62 375.399 151.894 375.914 152.027C376.178 152.091 376.452 152.103 376.72 152.061C376.989 152.019 377.246 151.924 377.478 151.782C377.71 151.64 377.911 151.454 378.07 151.234C378.23 151.014 378.344 150.764 378.406 150.5C378.542 149.187 378.348 147.862 377.843 146.643C377.634 146.03 377.296 145.47 376.852 144.999C376.409 144.528 375.869 144.157 375.271 143.911C370.045 141.902 363.694 145.759 361.684 150.58C360.72 152.911 361.122 156.607 364.337 156.768C366.749 156.848 367.633 154.196 366.829 152.268C365.543 149.295 361.604 149.616 359.031 150.42C356.137 151.304 353.404 153.714 354.208 157.089C354.304 157.319 354.485 157.504 354.713 157.605C354.941 157.706 355.199 157.717 355.434 157.635C355.67 157.554 355.865 157.385 355.981 157.164C356.097 156.943 356.124 156.687 356.057 156.446Z" fill="white"/>
<path d="M392.073 145.196C391.831 142.946 391.349 139.732 393.68 138.286C394.187 138.024 394.763 137.93 395.327 138.016C395.89 138.103 396.411 138.366 396.816 138.768C397.708 139.654 398.274 140.815 398.424 142.062C398.504 142.625 398.584 143.268 398.665 143.911C398.665 144.393 398.906 145.196 398.504 145.598C398.102 146 398.424 145.116 398.504 144.955C398.768 144.463 399.156 144.047 399.629 143.75C401.478 142.464 404.373 141.902 405.659 144.232C406.159 145.293 406.459 146.437 406.543 147.607C406.624 148.571 407.026 151.062 405.578 151.223C404.453 151.304 404.373 153.152 405.578 152.991C407.508 152.75 408.473 151.062 408.553 149.295C408.62 147.485 408.319 145.681 407.669 143.991C407.377 143.193 406.882 142.485 406.234 141.935C405.586 141.386 404.806 141.014 403.971 140.857C402.081 140.635 400.179 141.153 398.665 142.304C397.459 143.187 395.931 145.116 396.896 146.723C397.861 148.33 400.031 147.286 400.433 145.839C400.66 144.918 400.687 143.959 400.514 143.027C400.463 142.033 400.245 141.056 399.871 140.134C399.599 139.256 399.122 138.455 398.479 137.798C397.836 137.141 397.045 136.647 396.173 136.357C395.228 136.108 394.227 136.178 393.325 136.556C392.424 136.934 391.673 137.598 391.188 138.446C389.902 140.455 390.063 142.946 390.384 145.196C390.384 146.321 392.233 146.321 392.073 145.196Z" fill="white"/>
<path d="M398.584 157.571C398.504 157.17 399.067 156.848 399.388 156.848C399.625 156.823 399.865 156.854 400.088 156.937C400.312 157.021 400.512 157.156 400.675 157.33C401.229 157.958 401.64 158.698 401.88 159.5C402.202 160.384 402.524 161.67 401.961 162.473C401.801 162.718 401.562 162.9 401.283 162.988C401.005 163.075 400.704 163.064 400.433 162.955C399.388 162.232 401.398 161.268 401.961 161.187C402.925 161.027 403.971 160.786 404.533 161.75C405.417 163.556 405.91 165.527 405.98 167.536C406.117 169.456 405.926 171.385 405.418 173.241C405.181 174.18 404.858 175.094 404.453 175.973C404.212 176.536 403.569 178.143 403.086 177.018C402.609 176.076 402.441 175.008 402.604 173.964C402.937 173.086 403.561 172.348 404.373 171.875C406.061 170.67 407.99 169.705 409.759 168.58C410.724 167.937 409.839 166.411 408.875 167.054L404.855 169.464C403.752 170.02 402.747 170.753 401.88 171.634C400.273 173.482 400.433 176.295 401.72 178.384C401.926 178.796 402.285 179.112 402.721 179.262C403.157 179.412 403.635 179.385 404.051 179.187C405.096 178.705 405.659 177.58 406.141 176.616C407.196 174.181 407.744 171.556 407.749 168.902C407.81 166.25 407.289 163.616 406.222 161.187C406.032 160.678 405.708 160.229 405.283 159.889C404.858 159.549 404.349 159.331 403.81 159.259C402.567 159.111 401.308 159.334 400.192 159.902C398.504 160.786 397.539 163.437 399.549 164.562C401.237 165.527 403.408 164.321 403.89 162.554C404.533 160.304 403.327 156.768 401.318 155.562C399.308 154.357 396.494 155.643 396.896 158.134C396.896 159.179 398.665 158.696 398.584 157.571Z" fill="white"/>
<path d="M411.447 159.661C411.152 159.278 410.883 158.875 410.643 158.455C410.413 158.056 410.25 157.622 410.161 157.17C410.029 156.727 409.975 156.265 410 155.804V154.598C410 154.679 410 154.357 410.08 154.357C410.127 154.124 410.087 153.881 409.969 153.675C409.851 153.468 409.662 153.311 409.437 153.232C409.321 153.2 409.2 153.192 409.081 153.207C408.961 153.222 408.846 153.261 408.741 153.32C408.637 153.38 408.545 153.46 408.471 153.555C408.398 153.65 408.343 153.759 408.312 153.875C408.075 155.111 408.11 156.384 408.416 157.606C408.721 158.827 409.289 159.967 410.08 160.946C410.259 161.101 410.487 161.187 410.724 161.187C410.96 161.187 411.188 161.101 411.367 160.946C411.516 160.769 411.604 160.548 411.618 160.317C411.633 160.085 411.573 159.855 411.447 159.661Z" fill="white"/>
<path d="M233.137 363.768C233.539 375.018 226.304 386.991 209.743 381.607C192.218 375.902 210.869 347.375 226.786 355.009C231.208 357.098 233.057 360.312 233.137 363.768Z" fill="#FAC7B7"/>
<path d="M22.9922 397.196C52.3353 397.357 81.7588 396.634 111.102 394.946C119.302 394.464 127.582 393.982 135.782 393.339C136.465 393.339 137.119 393.068 137.601 392.586C138.084 392.104 138.355 391.45 138.355 390.768C138.355 390.086 138.084 389.432 137.601 388.95C137.119 388.467 136.465 388.196 135.782 388.196C106.439 390.366 77.0961 391.571 47.6726 391.973C39.3922 392.054 31.1922 392.054 22.9118 392.054C19.6157 392.054 19.6157 397.196 22.9922 397.196Z" fill="#FAC7B7"/>
<path d="M20.1784 379.598C50.9686 380.161 81.6784 380.402 112.469 380.482H138.275C141.571 380.482 141.651 375.259 138.275 375.339C107.484 375.42 76.7209 375.259 45.9843 374.857C37.3824 374.777 28.7804 374.616 20.1784 374.455C16.802 374.375 16.802 379.518 20.1784 379.598Z" fill="#FAC7B7"/>
<path d="M12.702 363.848C46.3863 364.893 80.0438 364.732 113.675 363.366C123.08 362.964 132.567 362.482 141.973 361.92C145.269 361.679 145.269 356.536 141.973 356.777C108.369 358.866 74.7111 359.723 41 359.348C31.5137 359.268 22.1079 359.027 12.6216 358.705C9.32551 358.625 9.32551 363.768 12.702 363.848Z" fill="#FAC7B7"/>
<path d="M9.64707 346.089C30.549 346.625 51.4778 346.464 72.4333 345.607C75.7294 345.446 75.8098 340.304 72.4333 340.464C51.5314 341.268 30.6026 341.429 9.64707 340.946C6.2706 340.866 6.2706 346.009 9.64707 346.089Z" fill="#FAC7B7"/>
<path d="M14.149 327.527H68.7353C72.0314 327.527 72.1118 322.304 68.7353 322.304H14.149C10.853 322.384 10.853 327.527 14.149 327.527Z" fill="#FAC7B7"/>
<path d="M20.1784 425.161C50.9686 425.723 81.6784 425.964 112.469 426.045H138.275C141.571 426.045 141.651 420.821 138.275 420.902C107.484 420.982 76.7209 420.821 45.9843 420.42C37.3824 420.339 28.7804 420.179 20.1784 420.018C16.802 419.937 16.802 425.08 20.1784 425.161Z" fill="#FAC7B7"/>
<path d="M12.702 410.455C46.3863 411.5 80.0438 411.339 113.675 409.973C123.08 409.571 132.567 409.089 141.973 408.527C145.269 408.286 145.269 403.143 141.973 403.384C108.369 405.473 74.7111 406.33 41 405.955C31.5137 405.875 22.1079 405.634 12.6216 405.312C9.32551 405.152 9.32551 410.295 12.702 410.455Z" fill="#FAC7B7"/>
<path d="M354.449 202.411C350.59 206.348 357.424 212.134 361.363 208.598C366.267 204.339 358.71 198.071 354.449 202.411Z" fill="#32142A"/>
<path d="M185.063 146.402C184.545 148.396 184.644 150.5 185.348 152.437C186.051 154.374 187.325 156.052 189.002 157.25C189.103 157.317 189.216 157.363 189.335 157.385C189.454 157.406 189.576 157.403 189.694 157.376C189.811 157.349 189.922 157.297 190.019 157.226C190.117 157.154 190.198 157.063 190.259 156.958C190.319 156.853 190.358 156.737 190.372 156.617C190.386 156.497 190.375 156.376 190.34 156.26C190.305 156.144 190.247 156.037 190.169 155.945C190.091 155.852 189.995 155.777 189.886 155.723C188.556 154.737 187.548 153.378 186.99 151.819C186.432 150.26 186.349 148.571 186.751 146.964C186.791 146.73 186.738 146.49 186.602 146.294C186.467 146.099 186.261 145.965 186.027 145.92C185.933 145.886 185.832 145.872 185.731 145.878C185.631 145.884 185.532 145.91 185.442 145.955C185.352 146 185.272 146.063 185.207 146.14C185.142 146.216 185.093 146.306 185.063 146.402Z" fill="#32142A"/>
<path d="M211.351 229.009C209.904 230.616 209.261 232.786 208.135 234.714C207.01 236.643 206.045 239.295 207.492 240.982C208.778 242.429 211.11 242.187 212.798 243.152C213.714 243.712 214.445 244.528 214.902 245.499C215.36 246.47 215.522 247.554 215.371 248.616C215.054 250.718 214.164 252.692 212.798 254.321C209.904 257.979 205.986 260.693 201.543 262.116L207.492 251.991C207.658 251.792 207.78 251.56 207.849 251.311C207.918 251.062 207.934 250.8 207.894 250.545C207.733 249.902 206.929 249.58 206.286 249.339L199.453 247.33C198.167 246.929 196.639 246.366 196.398 245C196.34 244.366 196.451 243.729 196.72 243.152C199.214 236.888 203.782 231.668 209.663 228.366C209.663 228.366 214.567 225.393 211.351 229.009Z" fill="white"/>
<path d="M226.625 221.938C225.011 224.132 223.56 226.441 222.284 228.848C221.4 230.536 219.551 233.348 220.355 235.357C221.48 238.089 225.902 236.643 226.867 239.295C228.314 243.313 225.902 247.089 223.49 250.143C221.824 252.289 220.025 254.329 218.104 256.25C217.172 257.223 216.178 258.136 215.129 258.982C214.808 259.223 212.075 260.67 212.155 260.429C212.476 257.375 216.094 254.402 217.782 251.991C219.471 249.58 221.239 247.25 222.686 244.759C223.973 242.509 220.435 241.304 218.988 240.661C215.933 239.295 213.682 238.571 215.531 234.714C217.175 231.244 219.14 227.935 221.4 224.83C223.329 222.259 226.063 217.92 229.439 216.955C228.938 218.558 228.148 220.056 227.108 221.375L226.625 221.938Z" fill="white"/>
<path d="M39.6333 184.812C36.8196 187.464 37.5431 193.009 42.2863 191.723C49.3608 189.714 44.4569 180.312 39.6333 184.812Z" fill="white"/>
<path d="M99.6863 68.375C97.8373 70.1428 98.3196 73.8393 101.455 72.9553C106.118 71.6696 102.822 65.4018 99.6863 68.375Z" fill="white"/>
<path d="M271.484 111.929C272.548 108.138 273.891 104.431 275.504 100.839C275.745 100.277 276.308 99.6339 276.79 99.875C277.273 100.116 277.273 100.839 277.112 101.321C276.308 104.696 275.504 108.152 274.7 111.527C277.881 111.198 281.094 111.696 284.025 112.973C284.088 112.994 284.145 113.029 284.192 113.074C284.24 113.12 284.276 113.176 284.299 113.237C284.322 113.299 284.332 113.365 284.326 113.43C284.32 113.496 284.3 113.559 284.267 113.616C284.267 113.696 284.186 113.777 284.106 113.857C282.331 114.983 280.257 115.543 278.157 115.464C277.788 115.367 277.402 115.352 277.026 115.421C276.651 115.491 276.296 115.643 275.986 115.866C275.686 116.236 275.492 116.68 275.424 117.152C274.725 120.093 273.644 122.929 272.208 125.589C272.127 125.722 272.001 125.82 271.852 125.864C271.704 125.909 271.544 125.897 271.404 125.83C271.33 125.793 271.268 125.735 271.226 125.664C271.183 125.593 271.161 125.511 271.163 125.429C270.6 122.777 271.725 119.804 271.645 116.991C271.652 116.679 271.568 116.372 271.404 116.107C271.279 115.952 271.119 115.827 270.938 115.744C270.757 115.66 270.558 115.619 270.359 115.625C267.369 114.986 264.438 114.099 261.596 112.973C260.792 112.652 259.908 111.848 260.471 111.205C260.679 111.036 260.929 110.925 261.194 110.884C262.975 110.562 264.799 110.562 266.58 110.884L271.484 111.929Z" fill="white"/>
<path d="M298.175 78.3393C295.28 81.0714 296.004 86.8571 300.988 85.4911C308.304 83.4018 303.159 73.6786 298.175 78.3393Z" fill="white"/>
<path d="M311.841 221.054C310.911 218.38 310.185 215.64 309.671 212.857C309.59 212.375 309.671 211.812 310.073 211.732C310.475 211.652 310.716 212.134 310.876 212.455C311.761 214.786 312.725 217.116 313.61 219.527C315.381 218.065 317.476 217.046 319.72 216.554C319.88 216.554 320.122 216.634 320.122 216.875V217.116C319.527 218.512 318.517 219.691 317.227 220.491C316.745 220.812 316.182 221.054 316.102 221.616C316.078 221.972 316.132 222.329 316.263 222.661C317.054 224.699 317.568 226.834 317.79 229.009C317.787 229.123 317.746 229.232 317.673 229.32C317.6 229.407 317.5 229.468 317.388 229.491C317.275 229.503 317.161 229.475 317.067 229.411C315.62 228.125 315.137 225.795 313.931 224.187C313.851 224.027 313.61 223.866 313.449 223.705C313.312 223.669 313.168 223.665 313.028 223.693C312.889 223.72 312.758 223.78 312.645 223.866C310.613 224.704 308.515 225.376 306.374 225.875C305.812 226.036 304.927 225.875 305.008 225.312C305.086 225.134 305.195 224.971 305.329 224.83C306.226 223.876 307.324 223.135 308.545 222.661L311.841 221.054Z" fill="white"/>
<path d="M464.667 245.402C462.818 247.17 463.3 250.866 466.435 249.982C471.098 248.696 467.882 242.429 464.667 245.402Z" fill="white"/>
<path d="M24.9216 212.295C24.2844 209.755 23.8012 207.179 23.4745 204.58C23.4745 204.179 23.5549 203.616 23.8765 203.616C24.198 203.616 24.4392 204.018 24.6 204.339C25.3235 206.589 25.9667 208.839 26.6098 211.009C28.368 209.805 30.373 209.009 32.4784 208.679C32.5613 208.677 32.6429 208.699 32.714 208.741C32.7851 208.784 32.8427 208.846 32.8804 208.92C32.8857 208.963 32.8812 209.007 32.8673 209.049C32.8534 209.091 32.8304 209.129 32.8 209.161C32.1836 210.42 31.1653 211.437 29.9059 212.054C29.6631 212.131 29.4384 212.256 29.245 212.421C29.0517 212.587 28.8936 212.79 28.7804 213.018C28.7269 213.341 28.7545 213.672 28.8608 213.982C29.4225 215.918 29.7465 217.915 29.8255 219.929C29.829 219.982 29.8211 220.036 29.8021 220.086C29.7832 220.137 29.7537 220.183 29.7157 220.221C29.6776 220.259 29.6318 220.288 29.5815 220.307C29.5311 220.326 29.4772 220.334 29.4235 220.33C29.3431 220.33 29.1824 220.25 29.1824 220.17C27.9765 218.884 27.6549 216.714 26.6902 215.107C26.5808 214.927 26.4453 214.765 26.2882 214.625C26.1566 214.578 26.0163 214.561 25.8773 214.575C25.7383 214.589 25.6041 214.634 25.4843 214.705C23.5437 215.348 21.5542 215.831 19.5353 216.152C18.9726 216.232 18.1686 215.991 18.3294 215.509C18.3897 215.343 18.5026 215.202 18.651 215.107C19.5595 214.303 20.628 213.701 21.7863 213.339L24.9216 212.295Z" fill="white"/>
</g>
<defs>
<clipPath id="clip0">
<rect width="492" height="423" fill="white" transform="translate(0 0.875)"/>
</clipPath>
</defs>
</svg>
