<svg width="83" height="76" viewBox="0 0 83 76" fill="none" xmlns="http://www.w3.org/2000/svg">
<path d="M35.923 26.5446C38.2813 23.4551 41.7996 1.4344 48.1225 7.44813C52.24 11.3513 54.7003 22.2854 58.2314 26.4302C62.5402 31.4776 84.1474 26.3666 82.9364 34.4527C82.095 40.0596 69.972 43.5941 66.7978 48.0821C60.6917 56.7022 71.081 62.5762 70.4309 70.9928C69.7425 79.8163 56.1281 70.9547 51.9851 68.5135C48.5687 66.5047 46.5035 64.4959 42.5518 65.5639C35.6935 67.4074 32.1624 74.9469 24.8963 75.8496C17.5536 76.765 25.0875 60.9106 26.1201 58.4822C26.9996 56.4225 30.7219 50.9301 30.1738 48.6416C29.1795 44.4841 20.8171 43.1872 17.3624 42.0811C11.5112 40.2249 8.03113 33.9187 14.6727 32.8507C22.487 31.5793 32.0859 31.5666 35.923 26.5446Z" fill="#F7BC28"/>
<path d="M40.9329 33.906C42.2332 32.2023 44.1709 20.1113 47.6382 23.417C49.8945 25.5656 51.2585 31.5667 53.1962 33.8425C55.5673 36.6141 67.4353 33.8043 66.7724 38.2542C66.3136 41.331 59.6465 43.2763 57.9001 45.7428C54.5475 50.4724 60.2584 53.7017 59.9015 58.3296C59.5191 63.1737 52.0489 58.3042 49.7671 56.9693C47.8931 55.8631 46.7587 54.757 44.5788 55.3419C40.8182 56.359 38.8678 60.5038 34.8778 60.9996C30.8495 61.4955 34.9798 52.799 35.5534 51.4514C36.0379 50.3198 38.0775 47.3066 37.7715 46.0479C37.2234 43.7594 32.6215 43.0474 30.7348 42.4499C27.5224 41.4327 25.6103 37.9618 29.2561 37.3769C33.5521 36.665 38.8168 36.665 40.9329 33.906Z" fill="#E48929"/>
<path d="M70.3544 9.06283C70.4818 6.46917 71.03 3.88822 71.9861 1.45985C72.1008 1.16743 72.3303 0.811433 72.6489 0.875003C72.8784 0.925859 72.9931 1.18014 73.0569 1.39628C73.5923 2.98553 73.9364 4.62564 74.0767 6.30389C74.1022 6.53274 74.1277 6.78702 74.2934 6.93959C74.5611 7.18115 74.9945 7.02859 75.3132 6.86331C76.8557 6.06232 78.4109 5.24862 79.9533 4.44764C80.0298 6.43103 77.7863 7.61343 76.792 9.32986C76.639 9.59683 76.5115 9.88924 76.5752 10.1944C76.6262 10.4741 76.843 10.6775 77.0341 10.8809C78.4364 12.3049 79.8387 13.7289 81.2536 15.1655C79.1375 15.3944 76.9321 14.7587 75.2622 13.4365C75.2622 15.9157 74.9945 18.4076 74.4464 20.836C73.2608 18.9925 72.3813 16.9456 71.8841 14.8223C70.6476 15.7123 69.3983 16.5895 68.1617 17.4795C68.7992 16.1446 69.4366 14.8096 70.074 13.4873C70.1504 13.3093 70.2396 13.1313 70.2269 12.9406C70.2014 12.6355 69.9337 12.4194 69.6788 12.2413C68.302 11.3387 65.5357 10.6393 65.1915 8.83398C66.6066 8.24914 68.8374 8.78312 70.3544 9.06283Z" fill="#FBC8B8"/>
<path d="M4.42343 58.4823C4.47443 56.5116 4.8951 54.5409 5.65996 52.7228C5.73644 52.5321 5.87667 52.3033 6.08063 52.3286C6.27184 52.3414 6.36108 52.5575 6.42482 52.7355C6.82 53.9433 7.0877 55.1893 7.21517 56.448C7.24067 56.6387 7.26617 56.8421 7.39364 56.9693C7.66134 57.2109 8.06927 56.982 8.34972 56.7658C9.34402 56.0157 10.4658 55.4563 11.6513 55.1003C11.4857 56.6133 9.84118 57.4906 9.12729 58.8382C9.05081 58.9781 8.98712 59.1306 9.01261 59.296C9.03811 59.4739 9.17828 59.6265 9.30583 59.7536C10.3893 60.8217 11.4729 61.9023 12.5437 62.983C10.9885 63.4153 9.39501 62.538 8.01827 61.6989C8.05652 63.5806 7.87806 65.4622 7.45738 67.2931C6.56505 65.8691 5.91491 64.3053 5.54523 62.6651C4.64015 63.3771 3.73507 64.1019 2.82998 64.8138C2.97021 63.8603 3.39088 62.9576 4.01551 62.2328C4.20673 62.0168 4.43619 61.7752 4.41069 61.4828C4.38519 61.1903 4.11749 60.9742 3.87529 60.8089C2.58777 59.9443 1.28752 59.0671 0 58.1898C0.2677 57.8592 0.803102 57.783 1.16004 58.0245L4.42343 58.4823Z" fill="#FBC8B8"/>
</svg>
