<svg width="73" height="74" viewBox="0 0 73 74" fill="none" xmlns="http://www.w3.org/2000/svg">
<path d="M20.24 2.92111C14.418 5.47325 9.25201 9.5896 6.13601 14.6116C-1.65399 27.2076 -1.57199 46.3075 11.63 55.2812C27.62 66.1483 55.91 60.6324 57.796 38.4041C59.682 16.0111 44.266 -7.45211 20.24 2.92111Z" fill="#F7BC28"/>
<path d="M22.946 9.42495C18.6 11.3185 14.828 14.3646 12.532 18.0693C6.71 27.4546 6.792 41.6148 16.632 48.2833C28.522 56.3514 49.514 52.235 50.908 35.7696C52.22 19.2219 40.822 1.76852 22.946 9.42495Z" fill="#FBFAF7"/>
<path d="M42.708 52.5643C46.726 57.6686 49.186 60.1384 52.958 63.2669C55.664 65.4897 58.37 67.7125 60.994 69.9354C63.208 71.7466 65.832 73.7224 68.62 73.2285C71.572 72.7345 73.622 69.2768 72.638 66.3953C72.31 65.4074 71.654 64.5018 70.916 63.6785C65.832 57.1747 59.928 51.3294 53.368 46.2252L42.708 52.5643Z" fill="#F7BC28"/>
<path d="M57.14 66.6423L66.57 58.3273L68.374 60.3854L59.19 68.2888L57.14 66.6423Z" fill="#E48929"/>
<path d="M60.42 69.4414L69.358 61.7027L70.916 63.6785L62.306 71.0056L60.42 69.4414Z" fill="#E48929"/>
</svg>
