<svg width="62" height="76" viewBox="0 0 62 76" fill="none" xmlns="http://www.w3.org/2000/svg">
<path d="M4.60606 14.7875C1.95347 16.3199 0.263427 19.1237 0.140311 22.217C-0.279402 32.6776 -0.67673 54.7848 13.7782 66.0058L26.1681 74.3663C28.9942 76.2733 32.6485 76.3699 35.5809 74.6273C39.4142 72.3514 44.546 68.9232 47.5119 65.3645C47.6463 65.1999 47.7861 65.0466 47.9316 64.8934C49.8119 62.9579 63.9702 47.4744 61.771 21.9446C61.5191 19.0216 59.8795 16.3993 57.3723 14.9293L35.4354 2.085C32.7044 0.484426 29.3411 0.473075 26.6046 2.0623L4.60606 14.7875Z" fill="#F7BC28"/>
<path d="M11.4217 20.6381C9.45749 21.7733 8.20392 23.8563 8.1088 26.1493C7.7954 33.9081 7.5044 50.2998 18.2211 58.6263L27.41 64.8299C29.5085 66.2432 32.2171 66.3169 34.3884 65.0229C37.2313 63.3371 41.0367 60.7944 43.236 58.1551C43.3367 58.036 43.4374 57.9168 43.5493 57.8089C44.9428 56.3729 55.4021 44.7773 53.8128 25.9563C53.712 24.736 50.7237 21.0865 49.7051 20.2578L34.2877 11.2163C32.2619 10.03 29.7716 10.0244 27.7402 11.1993L11.4217 20.6381Z" fill="#E48929"/>
<path d="M30.9973 10.3195V38.375H53.1637C53.1637 38.375 54.7419 30.5481 53.8185 25.9563C53.8185 25.9563 53.5611 22.8006 49.7109 20.2578L34.2879 11.2163C34.2879 11.2163 32.7209 10.2628 30.9973 10.3195Z" fill="#FBFAF7"/>
<path d="M30.9972 38.375L30.9917 65.9366C30.9917 65.9366 29.2121 66.0389 26.9792 64.5291L19.5922 59.5457C19.5922 59.5457 13.3301 55.76 11.2932 49.4939C11.2932 49.4939 8.72448 43.7329 8.37195 37.8585L30.9972 38.375Z" fill="#FBFAF7"/>
</svg>
